<svg width="162" height="50" viewBox="0 0 162 50" fill="none" xmlns="http://www.w3.org/2000/svg">
<g clip-path="url(#clip0_108_295)">
<path d="M54.7992 35.3107C53.163 35.3107 51.6512 35.0311 50.2636 34.4719C48.8759 33.892 47.6644 33.0946 46.6288 32.0798C45.614 31.065 44.827 29.8845 44.2678 28.5383C43.7086 27.1714 43.429 25.6906 43.429 24.0958C43.429 22.5218 43.7086 21.0617 44.2678 19.7155C44.8477 18.3486 45.6554 17.1681 46.691 16.174C47.7265 15.1592 48.9381 14.3722 50.3257 13.813C51.734 13.2538 53.2459 12.9742 54.8613 12.9742C56.0004 12.9742 57.0981 13.1295 58.1543 13.4402C59.2106 13.7509 60.1633 14.1858 61.0124 14.745C61.8615 15.3042 62.5657 15.9358 63.1249 16.64L60.5775 19.3117C59.9976 18.7525 59.397 18.2865 58.7756 17.9137C58.175 17.5409 57.5434 17.251 56.8806 17.0439C56.2179 16.8368 55.5344 16.7332 54.8303 16.7332C53.7947 16.7332 52.8317 16.9196 51.9411 17.2924C51.0713 17.6652 50.305 18.1829 49.6422 18.8457C49.0002 19.5084 48.4928 20.2851 48.12 21.1756C47.7472 22.0662 47.5608 23.0396 47.5608 24.0958C47.5608 25.1107 47.7472 26.0737 48.12 26.985C48.5135 27.8962 49.052 28.6936 49.7354 29.3771C50.4189 30.0605 51.2059 30.599 52.0964 30.9925C53.0077 31.3653 53.9708 31.5517 54.9856 31.5517C55.7519 31.5517 56.4664 31.4378 57.1291 31.2099C57.7919 30.9821 58.3821 30.6715 58.8999 30.278C59.4177 29.8638 59.8112 29.3874 60.0804 28.8489C60.3704 28.3105 60.5153 27.7306 60.5153 27.1092V26.4258L61.0745 27.0782H54.6439V23.4745H64.4918C64.5332 23.7023 64.5643 23.9612 64.585 24.2512C64.6057 24.5204 64.616 24.7896 64.616 25.0589C64.6368 25.3074 64.6471 25.5249 64.6471 25.7113C64.6471 27.1403 64.3986 28.4451 63.9015 29.6256C63.4045 30.7854 62.7003 31.7898 61.789 32.639C60.8985 33.4881 59.8526 34.1509 58.6514 34.6272C57.4709 35.0828 56.1868 35.3107 54.7992 35.3107ZM68.2347 35V12.0112H72.0869V35H68.2347ZM77.0119 35V18.6282H80.833V35H77.0119ZM78.8758 15.1488C78.1095 15.1488 77.5089 14.9624 77.074 14.5896C76.6598 14.1961 76.4527 13.6473 76.4527 12.9431C76.4527 12.2804 76.6701 11.7419 77.1051 11.3277C77.54 10.9135 78.1302 10.7064 78.8758 10.7064C79.6628 10.7064 80.2634 10.9031 80.6776 11.2966C81.1126 11.6694 81.33 12.2183 81.33 12.9431C81.33 13.5852 81.1126 14.1133 80.6776 14.5275C80.2427 14.9417 79.6421 15.1488 78.8758 15.1488ZM92.2643 35.3107C90.8145 35.3107 89.5098 34.9482 88.35 34.2234C87.2109 33.4778 86.2996 32.4733 85.6162 31.2099C84.9534 29.9259 84.6221 28.4554 84.6221 26.7986C84.6221 25.1624 84.9534 23.7023 85.6162 22.4183C86.2789 21.1342 87.1798 20.1297 88.3189 19.4049C89.4787 18.6593 90.7835 18.2865 92.2332 18.2865C93.0202 18.2865 93.7762 18.4108 94.501 18.6593C95.2466 18.9078 95.9094 19.2495 96.4893 19.6845C97.0692 20.0987 97.5248 20.5647 97.8562 21.0824C98.2082 21.6002 98.405 22.1387 98.4464 22.6979L97.4212 22.8221V12.0112H101.242V35H97.5455L97.4523 31.1478L98.1979 31.2099C98.1772 31.7277 97.9908 32.2248 97.6387 32.7011C97.3073 33.1775 96.8724 33.6124 96.3339 34.0059C95.7955 34.3994 95.1638 34.7204 94.4389 34.9689C93.7347 35.1968 93.0099 35.3107 92.2643 35.3107ZM93.0099 32.0798C93.9004 32.0798 94.6874 31.852 95.3709 31.3963C96.0543 30.9407 96.5825 30.3194 96.9553 29.5324C97.3488 28.7454 97.5455 27.8341 97.5455 26.7986C97.5455 25.7838 97.3488 24.8828 96.9553 24.0958C96.5825 23.2881 96.0543 22.6668 95.3709 22.2319C94.6874 21.7762 93.9004 21.5484 93.0099 21.5484C92.1193 21.5484 91.3323 21.7762 90.6489 22.2319C89.9654 22.6668 89.4269 23.2881 89.0334 24.0958C88.6606 24.8828 88.4742 25.7838 88.4742 26.7986C88.4742 27.8341 88.6606 28.7454 89.0334 29.5324C89.4269 30.3194 89.9654 30.9407 90.6489 31.3963C91.3323 31.852 92.1193 32.0798 93.0099 32.0798ZM112.166 35.3107C110.716 35.3107 109.411 34.9482 108.252 34.2234C107.113 33.4778 106.201 32.4733 105.518 31.2099C104.855 29.9259 104.524 28.4554 104.524 26.7986C104.524 25.1624 104.855 23.7023 105.518 22.4183C106.181 21.1342 107.081 20.1297 108.221 19.4049C109.38 18.6593 110.685 18.2865 112.135 18.2865C112.922 18.2865 113.678 18.4108 114.403 18.6593C115.148 18.9078 115.811 19.2495 116.391 19.6845C116.971 20.0987 117.426 20.5647 117.758 21.0824C118.11 21.6002 118.307 22.1387 118.348 22.6979L117.323 22.8221V12.0112H121.144V35H117.447L117.354 31.1478L118.1 31.2099C118.079 31.7277 117.892 32.2248 117.54 32.7011C117.209 33.1775 116.774 33.6124 116.236 34.0059C115.697 34.3994 115.065 34.7204 114.341 34.9689C113.636 35.1968 112.912 35.3107 112.166 35.3107ZM112.912 32.0798C113.802 32.0798 114.589 31.852 115.273 31.3963C115.956 30.9407 116.484 30.3194 116.857 29.5324C117.25 28.7454 117.447 27.8341 117.447 26.7986C117.447 25.7838 117.25 24.8828 116.857 24.0958C116.484 23.2881 115.956 22.6668 115.273 22.2319C114.589 21.7762 113.802 21.5484 112.912 21.5484C112.021 21.5484 111.234 21.7762 110.551 22.2319C109.867 22.6668 109.329 23.2881 108.935 24.0958C108.562 24.8828 108.376 25.7838 108.376 26.7986C108.376 27.8341 108.562 28.7454 108.935 29.5324C109.329 30.3194 109.867 30.9407 110.551 31.3963C111.234 31.852 112.021 32.0798 112.912 32.0798ZM133.155 35.3107C131.436 35.3107 129.914 34.9482 128.588 34.2234C127.283 33.4985 126.258 32.5147 125.513 31.2721C124.788 30.0087 124.425 28.5693 124.425 26.9539C124.425 25.6698 124.632 24.4997 125.047 23.4435C125.461 22.3872 126.03 21.4759 126.755 20.7096C127.501 19.9226 128.381 19.322 129.396 18.9078C130.431 18.4729 131.56 18.2554 132.782 18.2554C133.859 18.2554 134.864 18.4625 135.796 18.8767C136.727 19.291 137.535 19.8605 138.219 20.5854C138.902 21.2895 139.42 22.1387 139.772 23.1328C140.145 24.1062 140.321 25.1728 140.3 26.3326L140.269 27.6684H127.004L126.289 25.0589H137.069L136.572 25.587V24.9036C136.51 24.2615 136.303 23.7023 135.951 23.226C135.599 22.7289 135.143 22.3458 134.584 22.0765C134.045 21.7866 133.445 21.6416 132.782 21.6416C131.767 21.6416 130.908 21.8384 130.204 22.2319C129.52 22.6254 129.002 23.1949 128.65 23.9405C128.298 24.6654 128.122 25.5766 128.122 26.6743C128.122 27.7306 128.34 28.6522 128.775 29.4392C129.23 30.2262 129.862 30.8372 130.67 31.2721C131.498 31.6863 132.461 31.8934 133.559 31.8934C134.325 31.8934 135.029 31.7691 135.671 31.5206C136.313 31.2721 137.007 30.8268 137.753 30.1848L139.648 32.8254C139.088 33.3431 138.446 33.7884 137.722 34.1612C137.017 34.5133 136.272 34.7929 135.485 35C134.698 35.2071 133.921 35.3107 133.155 35.3107ZM143.684 35V18.6282H147.443L147.505 23.8473L146.977 22.6668C147.205 21.8384 147.599 21.0928 148.158 20.4301C148.717 19.7673 149.359 19.2495 150.084 18.8767C150.83 18.4832 151.606 18.2865 152.414 18.2865C152.766 18.2865 153.097 18.3176 153.408 18.3797C153.739 18.4418 154.009 18.5143 154.216 18.5972L153.191 22.7911C152.963 22.6668 152.683 22.5632 152.352 22.4804C152.02 22.3976 151.689 22.3561 151.358 22.3561C150.84 22.3561 150.343 22.4597 149.866 22.6668C149.411 22.8532 149.007 23.1224 148.655 23.4745C148.303 23.8266 148.023 24.2408 147.816 24.7172C147.63 25.1728 147.537 25.6906 147.537 26.2705V35H143.684Z" fill="white"/>
<path d="M52.9906 47V40.5794H53.4492V47H52.9906ZM53.2749 44.0098V43.5512H56.4577V44.0098H53.2749ZM53.2658 41.038V40.5794H56.9072V41.038H53.2658ZM59.6159 47.0917C59.2245 47.0917 58.9004 47.0214 58.6436 46.8808C58.3929 46.7401 58.2033 46.5261 58.0749 46.2387C57.9526 45.9452 57.8915 45.5722 57.8915 45.1197V42.2304H58.3501V45.1013C58.3501 45.456 58.3959 45.7495 58.4877 45.9819C58.5794 46.2081 58.72 46.3763 58.9096 46.4864C59.0992 46.5964 59.3376 46.6515 59.625 46.6515C59.8513 46.6515 60.0622 46.6117 60.2579 46.5322C60.4536 46.4466 60.6248 46.3365 60.7716 46.202C60.9183 46.0614 61.0314 45.9024 61.1109 45.7251C61.1965 45.5416 61.2393 45.349 61.2393 45.1472V42.2304H61.698V47H61.2577L61.2118 45.991H61.2669C61.1996 46.1928 61.0804 46.3763 60.9091 46.5414C60.7379 46.7065 60.5361 46.841 60.3038 46.945C60.0775 47.0428 59.8482 47.0917 59.6159 47.0917ZM63.0332 47V42.2304H63.4734L63.5193 43.2394H63.4643C63.5315 43.0376 63.6538 42.8541 63.8312 42.689C64.0085 42.5178 64.2195 42.3833 64.464 42.2854C64.7148 42.1815 64.9777 42.1295 65.2529 42.1295C65.5892 42.1295 65.8735 42.1998 66.1059 42.3405C66.3444 42.4811 66.5217 42.6982 66.6379 42.9917C66.7602 43.2852 66.8213 43.6582 66.8213 44.1107V47H66.3627V44.1291C66.3627 43.7744 66.3138 43.484 66.216 43.2577C66.1242 43.0253 65.9866 42.8541 65.8032 42.7441C65.6198 42.6279 65.3904 42.5698 65.1153 42.5698C64.8768 42.5698 64.6597 42.6126 64.464 42.6982C64.2684 42.7777 64.0972 42.8878 63.9504 43.0284C63.8036 43.169 63.6905 43.3311 63.611 43.5145C63.5315 43.6919 63.4918 43.8814 63.4918 44.0832V47H63.2625C63.2564 47 63.235 47 63.1983 47C63.1677 47 63.1127 47 63.0332 47ZM72.1586 47V41.038H70.2783V40.5794H74.5617V41.038H72.6172V47H72.1586ZM76.442 47.0917C76.0078 47.0917 75.6195 46.9847 75.2771 46.7707C74.9347 46.5567 74.6625 46.2632 74.4608 45.8902C74.2651 45.5171 74.1672 45.0922 74.1672 44.6152C74.1672 44.1321 74.2681 43.7041 74.4699 43.3311C74.6778 42.9581 74.953 42.6646 75.2954 42.4506C75.6379 42.2365 76.02 42.1295 76.442 42.1295C76.6866 42.1295 76.9189 42.1662 77.1391 42.2396C77.3592 42.313 77.5579 42.4169 77.7353 42.5514C77.9126 42.6799 78.0655 42.8327 78.1939 43.0101C78.3223 43.1874 78.414 43.38 78.469 43.5879L78.2856 43.4687L78.3315 42.2304H78.7717V47H78.3131V45.8076L78.469 45.6333C78.414 45.8351 78.3223 46.0247 78.1939 46.202C78.0655 46.3793 77.9126 46.5353 77.7353 46.6698C77.5579 46.8043 77.3592 46.9083 77.1391 46.9817C76.9189 47.055 76.6866 47.0917 76.442 47.0917ZM76.5062 46.6331C76.8547 46.6331 77.1666 46.5475 77.4417 46.3763C77.723 46.199 77.9432 45.9605 78.1021 45.6608C78.2673 45.3551 78.3498 45.0035 78.3498 44.606C78.3498 44.2147 78.2703 43.8692 78.1113 43.5696C77.9523 43.2638 77.7322 43.0253 77.4509 42.8541C77.1757 42.6768 76.8608 42.5881 76.5062 42.5881C76.1454 42.5881 75.8244 42.6768 75.5431 42.8541C75.2679 43.0253 75.0508 43.2638 74.8919 43.5696C74.7329 43.8692 74.6534 44.2147 74.6534 44.606C74.6534 44.9913 74.7298 45.3368 74.8827 45.6425C75.0417 45.9482 75.2587 46.1898 75.5339 46.3671C75.8152 46.5444 76.1393 46.6331 76.5062 46.6331ZM80.1331 47V40.2125H80.5917V47H80.1331ZM82.3362 45.4224V44.8445L85.0237 42.2304H85.6291L82.3362 45.4224ZM81.951 47V40.2125H82.4096V47H81.951ZM85.2805 47L83.0792 44.4501L83.391 44.1107L85.8859 47H85.2805ZM90.289 47L88.6013 42.2304H89.1332L90.5366 46.3946L90.289 46.3763L91.8115 42.9459H92.0867L93.6093 46.3763L93.3158 46.3946L94.765 42.2304H95.2695L93.5818 47H93.4075L91.784 43.2669H92.1142L90.4907 47H90.289ZM96.2249 47V42.2304H96.6835V47H96.2249ZM96.4542 41.2306C96.3197 41.2306 96.2157 41.1939 96.1424 41.1206C96.069 41.0472 96.0323 40.9463 96.0323 40.8179C96.0323 40.6956 96.069 40.5978 96.1424 40.5244C96.2157 40.4449 96.3197 40.4051 96.4542 40.4051C96.5888 40.4051 96.6927 40.4418 96.7661 40.5152C96.8395 40.5886 96.8761 40.6895 96.8761 40.8179C96.8761 40.9402 96.8395 41.0411 96.7661 41.1206C96.6927 41.1939 96.5888 41.2306 96.4542 41.2306ZM98.96 47V40.9555H99.4186V47H98.96ZM97.8134 42.6523V42.2304H100.703V42.6523H97.8134ZM101.532 47V40.2125H101.99V43.3311L101.88 43.5054C101.947 43.218 102.076 42.9734 102.265 42.7716C102.455 42.5637 102.675 42.4047 102.926 42.2946C103.183 42.1846 103.439 42.1295 103.696 42.1295C104.063 42.1295 104.366 42.1998 104.604 42.3405C104.849 42.4811 105.029 42.6982 105.146 42.9917C105.262 43.2852 105.32 43.6582 105.32 44.1107V47H104.861V44.1291C104.861 43.7744 104.815 43.484 104.724 43.2577C104.632 43.0253 104.491 42.8541 104.302 42.7441C104.118 42.6279 103.883 42.5698 103.595 42.5698C103.369 42.5698 103.158 42.6126 102.963 42.6982C102.767 42.7777 102.596 42.8878 102.449 43.0284C102.308 43.169 102.195 43.3311 102.11 43.5145C102.03 43.6919 101.99 43.8814 101.99 44.0832V47H101.761C101.755 47 101.733 47 101.697 47C101.666 47 101.611 47 101.532 47ZM111.308 47.0917C111.003 47.0917 110.709 47.0459 110.428 46.9541C110.153 46.8624 109.896 46.7279 109.657 46.5506C109.425 46.3671 109.22 46.1439 109.043 45.881L109.373 45.5416C109.642 45.933 109.942 46.2142 110.272 46.3855C110.602 46.5506 110.954 46.6331 111.327 46.6331C111.651 46.6331 111.941 46.5781 112.198 46.468C112.455 46.3518 112.657 46.1959 112.803 46.0002C112.956 45.7984 113.033 45.5722 113.033 45.3215C113.033 45.1503 113.002 45.0035 112.941 44.8812C112.886 44.7589 112.803 44.6519 112.693 44.5602C112.589 44.4685 112.461 44.389 112.308 44.3217C112.161 44.2483 111.993 44.1841 111.804 44.1291C111.62 44.0679 111.421 44.0068 111.207 43.9456C110.914 43.86 110.651 43.7714 110.419 43.6796C110.192 43.5879 109.997 43.4778 109.832 43.3494C109.673 43.221 109.55 43.0682 109.465 42.8908C109.385 42.7135 109.345 42.4964 109.345 42.2396C109.345 41.9889 109.394 41.7596 109.492 41.5517C109.596 41.3438 109.74 41.1634 109.923 41.0105C110.107 40.8576 110.318 40.7414 110.556 40.662C110.801 40.5763 111.064 40.5335 111.345 40.5335C111.675 40.5335 111.963 40.5825 112.207 40.6803C112.458 40.772 112.678 40.9035 112.868 41.0747C113.057 41.2459 113.228 41.4477 113.381 41.6801L113.042 42.0103C112.907 41.8024 112.758 41.622 112.592 41.4691C112.427 41.3162 112.241 41.2001 112.033 41.1206C111.831 41.035 111.602 40.9922 111.345 40.9922C111.051 40.9922 110.789 41.0472 110.556 41.1573C110.33 41.2612 110.15 41.408 110.015 41.5975C109.88 41.7871 109.813 42.0042 109.813 42.2488C109.813 42.42 109.844 42.5698 109.905 42.6982C109.972 42.8266 110.073 42.9397 110.208 43.0376C110.348 43.1293 110.523 43.2149 110.73 43.2944C110.944 43.3678 111.198 43.4412 111.492 43.5145C111.791 43.5879 112.063 43.6735 112.308 43.7714C112.553 43.8692 112.764 43.9854 112.941 44.1199C113.124 44.2544 113.262 44.4165 113.354 44.606C113.452 44.7956 113.5 45.0249 113.5 45.294C113.5 45.6364 113.406 45.9452 113.216 46.2204C113.027 46.4894 112.767 46.7034 112.436 46.8624C112.106 47.0153 111.73 47.0917 111.308 47.0917ZM115.379 47V40.9555H115.837V47H115.379ZM114.232 42.6523V42.2304H117.121V42.6523H114.232ZM117.95 47V42.2304H118.391L118.437 43.2944H118.372C118.44 43.0926 118.544 42.903 118.684 42.7257C118.825 42.5484 118.996 42.4047 119.198 42.2946C119.406 42.1846 119.644 42.1295 119.913 42.1295C120.017 42.1295 120.112 42.1387 120.198 42.157C120.289 42.1693 120.372 42.1846 120.445 42.2029L120.308 42.7349C120.222 42.6982 120.14 42.6737 120.06 42.6615C119.981 42.6493 119.91 42.6432 119.849 42.6432C119.604 42.6432 119.39 42.686 119.207 42.7716C119.03 42.8572 118.88 42.9764 118.758 43.1293C118.641 43.2761 118.553 43.4442 118.492 43.6338C118.437 43.8233 118.409 44.0221 118.409 44.23V47H117.95ZM122.805 47.0917C122.371 47.0917 121.983 46.9847 121.64 46.7707C121.298 46.5567 121.026 46.2632 120.824 45.8902C120.628 45.5171 120.53 45.0922 120.53 44.6152C120.53 44.1321 120.631 43.7041 120.833 43.3311C121.041 42.9581 121.316 42.6646 121.658 42.4506C122.001 42.2365 122.383 42.1295 122.805 42.1295C123.05 42.1295 123.282 42.1662 123.502 42.2396C123.722 42.313 123.921 42.4169 124.098 42.5514C124.276 42.6799 124.428 42.8327 124.557 43.0101C124.685 43.1874 124.777 43.38 124.832 43.5879L124.649 43.4687L124.694 42.2304H125.135V47H124.676V45.8076L124.832 45.6333C124.777 45.8351 124.685 46.0247 124.557 46.202C124.428 46.3793 124.276 46.5353 124.098 46.6698C123.921 46.8043 123.722 46.9083 123.502 46.9817C123.282 47.055 123.05 47.0917 122.805 47.0917ZM122.869 46.6331C123.218 46.6331 123.53 46.5475 123.805 46.3763C124.086 46.199 124.306 45.9605 124.465 45.6608C124.63 45.3551 124.713 45.0035 124.713 44.606C124.713 44.2147 124.633 43.8692 124.474 43.5696C124.315 43.2638 124.095 43.0253 123.814 42.8541C123.539 42.6768 123.224 42.5881 122.869 42.5881C122.508 42.5881 122.187 42.6768 121.906 42.8541C121.631 43.0253 121.414 43.2638 121.255 43.5696C121.096 43.8692 121.016 44.2147 121.016 44.606C121.016 44.9913 121.093 45.3368 121.246 45.6425C121.405 45.9482 121.622 46.1898 121.897 46.3671C122.178 46.5444 122.502 46.6331 122.869 46.6331ZM126.478 47V42.2304H126.918L126.964 43.2394H126.909C126.976 43.0376 127.098 42.8541 127.276 42.689C127.453 42.5178 127.664 42.3833 127.909 42.2854C128.159 42.1815 128.422 42.1295 128.697 42.1295C129.034 42.1295 129.318 42.1998 129.55 42.3405C129.789 42.4811 129.966 42.6982 130.082 42.9917C130.205 43.2852 130.266 43.6582 130.266 44.1107V47H129.807V44.1291C129.807 43.7744 129.758 43.484 129.661 43.2577C129.569 43.0253 129.431 42.8541 129.248 42.7441C129.064 42.6279 128.835 42.5698 128.56 42.5698C128.321 42.5698 128.104 42.6126 127.909 42.6982C127.713 42.7777 127.542 42.8878 127.395 43.0284C127.248 43.169 127.135 43.3311 127.056 43.5145C126.976 43.6919 126.936 43.8814 126.936 44.0832V47H126.707C126.701 47 126.68 47 126.643 47C126.612 47 126.557 47 126.478 47ZM133.574 49.1096C133.207 49.1096 132.876 49.0515 132.583 48.9354C132.289 48.8253 132.036 48.6908 131.822 48.5318L132.033 48.1007C132.155 48.2046 132.296 48.2963 132.455 48.3758C132.614 48.4614 132.788 48.5287 132.977 48.5776C133.173 48.6266 133.381 48.651 133.601 48.651C133.968 48.651 134.286 48.5746 134.555 48.4217C134.824 48.2749 135.029 48.0518 135.17 47.7521C135.316 47.4586 135.39 47.0917 135.39 46.6515V45.7526L135.518 45.6333C135.439 45.9085 135.301 46.1562 135.105 46.3763C134.91 46.5964 134.671 46.7707 134.39 46.8991C134.115 47.0275 133.815 47.0917 133.491 47.0917C133.057 47.0917 132.669 46.9847 132.326 46.7707C131.984 46.5567 131.712 46.2632 131.51 45.8902C131.314 45.5171 131.216 45.0922 131.216 44.6152C131.216 44.1321 131.317 43.7041 131.519 43.3311C131.727 42.9581 132.002 42.6646 132.344 42.4506C132.687 42.2365 133.069 42.1295 133.491 42.1295C133.687 42.1295 133.873 42.154 134.051 42.2029C134.234 42.2518 134.402 42.3191 134.555 42.4047C134.714 42.4903 134.858 42.5942 134.986 42.7165C135.115 42.8388 135.222 42.9734 135.307 43.1201C135.399 43.2669 135.469 43.4228 135.518 43.5879L135.344 43.4687L135.39 42.2304H135.848V46.7065C135.848 47.0917 135.793 47.4311 135.683 47.7246C135.573 48.0242 135.414 48.2749 135.206 48.4767C135.004 48.6846 134.763 48.8406 134.482 48.9445C134.206 49.0546 133.904 49.1096 133.574 49.1096ZM133.555 46.6331C133.904 46.6331 134.216 46.5475 134.491 46.3763C134.772 46.199 134.992 45.9605 135.151 45.6608C135.316 45.3551 135.399 45.0035 135.399 44.606C135.399 44.2147 135.319 43.8692 135.16 43.5696C135.001 43.2638 134.781 43.0253 134.5 42.8541C134.225 42.6768 133.91 42.5881 133.555 42.5881C133.194 42.5881 132.873 42.6768 132.592 42.8541C132.317 43.0253 132.1 43.2638 131.941 43.5696C131.782 43.8692 131.702 44.2147 131.702 44.606C131.702 44.9913 131.779 45.3368 131.932 45.6425C132.091 45.9482 132.308 46.1898 132.583 46.3671C132.864 46.5444 133.188 46.6331 133.555 46.6331ZM139.181 47.0917C138.722 47.0917 138.313 46.9878 137.952 46.7799C137.597 46.572 137.319 46.2815 137.117 45.9085C136.916 45.5355 136.815 45.1013 136.815 44.606C136.815 44.2453 136.87 43.9151 136.98 43.6154C137.096 43.3158 137.255 43.0559 137.457 42.8358C137.658 42.6095 137.9 42.4353 138.181 42.313C138.469 42.1907 138.781 42.1295 139.117 42.1295C139.447 42.1295 139.744 42.1846 140.007 42.2946C140.276 42.4047 140.502 42.5637 140.685 42.7716C140.869 42.9734 141.006 43.2149 141.098 43.4962C141.19 43.7714 141.23 44.0771 141.217 44.4134L141.208 44.6611H137.154V44.2391H140.96L140.759 44.4042V44.1841C140.759 43.9395 140.698 43.6949 140.575 43.4503C140.459 43.2057 140.279 43.0009 140.034 42.8358C139.789 42.6707 139.481 42.5881 139.108 42.5881C138.759 42.5881 138.447 42.6646 138.172 42.8174C137.903 42.9703 137.689 43.1935 137.53 43.487C137.377 43.7805 137.301 44.1444 137.301 44.5785C137.301 44.9943 137.377 45.3582 137.53 45.67C137.683 45.9758 137.903 46.2142 138.19 46.3855C138.484 46.5506 138.842 46.6331 139.264 46.6331C139.49 46.6331 139.722 46.5964 139.961 46.523C140.199 46.4497 140.468 46.2907 140.768 46.0461L141.006 46.3855C140.872 46.5139 140.713 46.6331 140.529 46.7432C140.346 46.8471 140.141 46.9327 139.915 47C139.689 47.0611 139.444 47.0917 139.181 47.0917ZM142.144 47V42.2304H142.584L142.63 43.2944H142.566C142.633 43.0926 142.737 42.903 142.878 42.7257C143.018 42.5484 143.19 42.4047 143.391 42.2946C143.599 42.1846 143.838 42.1295 144.107 42.1295C144.211 42.1295 144.306 42.1387 144.391 42.157C144.483 42.1693 144.566 42.1846 144.639 42.2029L144.501 42.7349C144.416 42.6982 144.333 42.6737 144.254 42.6615C144.174 42.6493 144.104 42.6432 144.043 42.6432C143.798 42.6432 143.584 42.686 143.401 42.7716C143.223 42.8572 143.074 42.9764 142.951 43.1293C142.835 43.2761 142.746 43.4442 142.685 43.6338C142.63 43.8233 142.603 44.0221 142.603 44.23V47H142.144Z" fill="white"/>
<path d="M14.6458 14.3865C15.5134 13.519 16.9198 13.519 17.7874 14.3865L28.7826 25.3817C29.6501 26.2492 29.6501 27.6557 28.7826 28.5232L17.7874 39.5185C16.9198 40.3859 15.5134 40.3859 14.6458 39.5185L3.65062 28.5232C2.78313 27.6557 2.78313 26.2492 3.65063 25.3817L14.6458 14.3865Z" fill="url(#paint0_linear_108_295)"/>
<path d="M24.2132 13.6506C25.0808 12.7831 26.4872 12.7831 27.3547 13.6506L38.35 24.6458C39.2175 25.5134 39.2175 26.9198 38.35 27.7873L27.3547 38.7826C26.4872 39.6501 25.0808 39.6501 24.2132 38.7826L13.218 27.7873C12.3505 26.9198 12.3505 25.5134 13.218 24.6458L24.2132 13.6506Z" fill="url(#paint1_linear_108_295)"/>
</g>
<defs>
<linearGradient id="paint0_linear_108_295" x1="8.88607" y1="19.5109" x2="23.325" y2="33.9497" gradientUnits="userSpaceOnUse">
<stop stop-color="#4A6CF7"/>
<stop offset="1" stop-color="#4A6CF7" stop-opacity="0"/>
</linearGradient>
<linearGradient id="paint1_linear_108_295" x1="18.4535" y1="18.775" x2="32.8924" y2="33.2139" gradientUnits="userSpaceOnUse">
<stop stop-color="#4A6CF7" stop-opacity="0"/>
<stop offset="1" stop-color="#4A6CF7"/>
</linearGradient>
<clipPath id="clip0_108_295">
<rect width="162" height="50" fill="white"/>
</clipPath>
</defs>
</svg>
